<svg xmlns="http://www.w3.org/2000/svg" xmlns:xlink="http://www.w3.org/1999/xlink" width="500" zoomAndPan="magnify" viewBox="0 0 375 187.499995" height="250" preserveAspectRatio="xMidYMid meet" version="1.0"><defs><clipPath id="90cf49f466"><path d="M 1 32 L 304.1875 32 L 304.1875 186.707031 L 1 186.707031 Z M 1 32 " clip-rule="nonzero"/></clipPath><clipPath id="04beaea2ec"><path d="M 295 11 L 357 11 L 357 79 L 295 79 Z M 295 11 " clip-rule="nonzero"/></clipPath><clipPath id="3142ae3eda"><path d="M 282.570312 29.777344 L 322.011719 0.0859375 L 371.949219 66.417969 L 332.507812 96.109375 Z M 282.570312 29.777344 " clip-rule="nonzero"/></clipPath><clipPath id="36f7cb16df"><path d="M 282.570312 29.777344 L 322.011719 0.0859375 L 371.949219 66.417969 L 332.507812 96.109375 Z M 282.570312 29.777344 " clip-rule="nonzero"/></clipPath></defs><g clip-path="url(#90cf49f466)"><path fill="#ffffff" d="M 88.398438 104.742188 C 88.398438 109.5 92.261719 113.355469 97.027344 113.355469 C 101.789062 113.355469 105.652344 109.5 105.652344 104.742188 C 105.652344 99.980469 101.789062 96.121094 97.027344 96.121094 C 92.261719 96.121094 88.398438 99.980469 88.398438 104.742188 Z M 62.859375 104.742188 C 62.859375 109.5 66.722656 113.355469 71.488281 113.355469 C 76.25 113.355469 80.113281 109.5 80.113281 104.742188 C 80.113281 99.980469 76.25 96.121094 71.488281 96.121094 C 66.722656 96.121094 62.859375 99.980469 62.859375 104.742188 Z M 37.109375 104.742188 C 37.109375 109.5 40.972656 113.355469 45.738281 113.355469 C 50.503906 113.355469 54.367188 109.5 54.367188 104.742188 C 54.367188 99.980469 50.503906 96.121094 45.738281 96.121094 C 40.972656 96.121094 37.109375 99.980469 37.109375 104.742188 Z M 67.898438 162.042969 C 63.355469 161.496094 58.886719 160.425781 54.617188 158.863281 C 53.316406 158.390625 51.894531 158.386719 50.59375 158.855469 L 16.847656 171.046875 L 27.265625 142.625 C 27.925781 140.824219 27.664062 138.816406 26.566406 137.246094 C 18.261719 125.359375 14.644531 110.890625 16.382812 96.492188 C 18.269531 80.871094 26.132812 66.914062 38.53125 57.199219 C 50.929688 47.480469 66.375 43.164062 82.019531 45.046875 C 92.292969 46.285156 102.074219 50.195312 110.300781 56.351562 L 117.355469 46.953125 C 107.480469 39.5625 95.746094 34.871094 83.429688 33.386719 C 64.660156 31.128906 46.140625 36.304688 31.269531 47.957031 C 16.402344 59.613281 6.96875 76.351562 4.707031 95.089844 C 2.746094 111.324219 6.464844 127.640625 15.199219 141.382812 L 1.46875 178.832031 C 0.683594 180.976562 1.210938 183.382812 2.824219 185 C 3.949219 186.125 5.453125 186.726562 6.992188 186.726562 C 7.664062 186.726562 8.339844 186.609375 8.992188 186.378906 L 52.628906 170.609375 C 57.121094 172.097656 61.773438 173.136719 66.492188 173.703125 C 69.355469 174.046875 72.210938 174.21875 75.050781 174.21875 C 93.308594 174.21875 110.855469 167.191406 124.1875 154.3125 L 116.007812 145.871094 C 103.160156 158.28125 85.625 164.175781 67.898438 162.042969 Z M 304.019531 92.992188 L 304.019531 83.195312 L 285.945312 83.195312 L 285.945312 61.996094 L 274.453125 65.707031 L 274.453125 83.195312 L 262.125 83.195312 L 262.125 92.992188 L 274.453125 92.992188 L 274.453125 135.390625 C 274.453125 149.382812 280.734375 156.378906 293.300781 156.378906 C 297.734375 156.378906 301.308594 155.632812 304.019531 154.140625 L 304.019531 144.34375 C 301.917969 145.933594 299.417969 146.722656 296.523438 146.722656 C 292.742188 146.722656 290.03125 145.699219 288.394531 143.644531 C 286.757812 141.59375 285.945312 138.164062 285.945312 133.363281 L 285.945312 92.992188 Z M 246.210938 118.597656 L 228.90625 120.976562 C 223.582031 121.722656 219.5625 123.042969 216.855469 124.929688 C 214.144531 126.820312 212.792969 130.167969 212.792969 134.96875 C 212.792969 138.46875 214.042969 141.324219 216.539062 143.542969 C 219.039062 145.757812 222.367188 146.867188 226.523438 146.867188 C 232.222656 146.867188 236.929688 144.867188 240.640625 140.882812 C 244.355469 136.894531 246.210938 131.847656 246.210938 125.734375 Z M 257.703125 108.242188 L 257.703125 154.839844 L 246.210938 154.839844 L 246.210938 143.644531 L 245.929688 143.644531 C 240.933594 152.230469 233.574219 156.523438 223.863281 156.523438 C 216.714844 156.523438 211.121094 154.632812 207.082031 150.855469 C 203.039062 147.074219 201.023438 142.058594 201.023438 135.808594 C 201.023438 122.421875 208.914062 114.636719 224.703125 112.441406 L 246.210938 109.433594 C 246.210938 97.261719 241.28125 91.171875 231.425781 91.171875 C 222.785156 91.171875 214.984375 94.109375 208.027344 99.988281 L 208.027344 88.234375 C 215.082031 83.757812 223.207031 81.519531 232.410156 81.519531 C 249.269531 81.519531 257.703125 90.425781 257.703125 108.242188 Z M 193.304688 110.695312 L 193.304688 154.839844 L 181.816406 154.839844 L 181.816406 113.558594 C 181.816406 98.636719 176.257812 91.171875 165.140625 91.171875 C 159.535156 91.171875 154.820312 93.332031 150.988281 97.644531 C 147.160156 101.960938 145.246094 107.5 145.246094 114.257812 L 145.246094 154.839844 L 133.753906 154.839844 L 133.753906 48.773438 L 145.246094 48.773438 L 145.246094 95.089844 L 145.523438 95.089844 C 151.035156 86.039062 158.882812 81.519531 169.0625 81.519531 C 185.222656 81.519531 193.304688 91.242188 193.304688 110.695312 " fill-opacity="1" fill-rule="nonzero"/></g><g clip-path="url(#04beaea2ec)"><g clip-path="url(#3142ae3eda)"><g clip-path="url(#36f7cb16df)"><path fill="#ffffff" d="M 324.328125 77.789062 L 320.8125 77.660156 C 321.242188 66.203125 317.074219 57.503906 308.453125 51.804688 C 301.953125 47.515625 295.316406 46.625 295.246094 46.613281 L 295.6875 43.128906 C 295.992188 43.171875 303.21875 44.160156 310.378906 48.882812 C 317.066406 53.28125 324.910156 61.886719 324.328125 77.789062 Z M 320.585938 34.734375 C 310.425781 28.285156 300.183594 27.554688 299.75 27.53125 L 299.445312 32.324219 C 299.535156 32.335938 309.050781 33.03125 318.179688 38.886719 C 330.261719 46.625 336.082031 59.363281 335.492188 76.765625 L 340.28125 76.9375 C 341.09375 52.898438 330.019531 40.714844 320.585938 34.734375 Z M 332.988281 23.363281 C 320.269531 14.117188 307.136719 11.914062 306.59375 11.828125 L 305.589844 18.140625 C 305.703125 18.15625 317.75 20.179688 329.238281 28.53125 C 344.519531 39.640625 351.425781 56.191406 349.722656 77.703125 L 356.09375 78.214844 C 358.433594 48.46875 344.832031 31.964844 332.988281 23.363281 Z M 332.988281 23.363281 " fill-opacity="1" fill-rule="nonzero"/></g></g></g></svg>